<svg width="236" height="150" viewBox="0 0 236 150" fill="none" xmlns="http://www.w3.org/2000/svg">
<path d="M201.243 60.8652L230.958 52.903C233.761 66.7912 231.66 81.2686 224.944 93.8337C217.623 107.53 205.367 117.928 190.661 122.92C175.956 127.912 159.902 127.124 145.756 120.714C131.611 114.305 120.433 102.755 114.49 88.4074C108.547 74.0597 108.284 57.9886 113.754 43.4541C119.224 28.9196 130.018 17.0102 143.947 10.1415C157.875 3.27282 173.895 1.95931 188.756 6.46739C202.39 10.6032 214.112 19.3548 221.951 31.157L195.309 46.5387C195.307 46.5399 195.309 46.5393 195.305 46.5399C195.295 46.5411 195.26 46.5436 195.199 46.5287C195.063 46.4956 194.887 46.3968 194.753 46.2267C190.944 41.4072 185.734 37.831 179.789 36.0276C172.433 33.7962 164.503 34.4464 157.609 37.8462C150.715 41.2461 145.372 47.141 142.664 54.3353C139.957 61.5295 140.087 69.4844 143.029 76.5862C145.97 83.688 151.503 89.4049 158.505 92.5774C165.507 95.7498 173.453 96.1402 180.732 93.6693C188.011 91.1985 194.077 86.0513 197.701 79.2721C200.63 73.7932 201.785 67.5801 201.071 61.4788C201.045 61.2635 201.1 61.0692 201.173 60.9499C201.205 60.8961 201.232 60.873 201.239 60.8674C201.241 60.8656 201.242 60.8653 201.242 60.8653C201.242 60.8653 201.242 60.8654 201.243 60.8652Z" fill="#1B262C" stroke="#F6F7FF" stroke-width="7.66702"/>
<path d="M46.2976 40.8761L24.5445 19.123C35.1708 9.75186 48.7589 4.33246 62.9987 3.86629C78.5202 3.35817 93.6538 8.77308 105.33 19.0126C117.006 29.2521 124.35 43.5495 125.872 59.0046C127.394 74.4596 122.98 89.915 113.527 102.236C104.073 114.556 90.2861 122.82 74.9637 125.349C59.6413 127.879 43.9304 124.486 31.0178 115.858C18.1052 107.23 8.95797 94.0135 5.43152 78.8893C2.19627 65.0141 3.91414 50.4863 10.2157 37.7967L36.8577 53.1785C36.8585 53.1789 36.8587 53.1789 36.8588 53.1789C36.859 53.179 36.8591 53.1793 36.8609 53.1816C36.8664 53.1889 36.8862 53.2181 36.9038 53.2785C36.943 53.4125 36.9454 53.6144 36.8653 53.8158C34.5961 59.5243 34.1042 65.8248 35.5149 71.8749C37.2604 79.361 41.7881 85.9029 48.1795 90.1735C54.571 94.4441 62.3476 96.1237 69.9318 94.8716C77.5161 93.6194 84.3401 89.5292 89.0196 83.4308C93.6991 77.3323 95.8837 69.6823 95.1302 62.0323C94.3768 54.3824 90.7417 47.3055 84.9624 42.2372C79.183 37.1688 71.6922 34.4886 64.0094 34.7401C57.8004 34.9434 51.8419 37.0492 46.9152 40.7186C46.7413 40.8481 46.5457 40.8979 46.4062 40.8948C46.3433 40.8934 46.31 40.8819 46.3014 40.8784C46.2988 40.8773 46.2985 40.8772 46.2983 40.8771C46.2983 40.877 46.2983 40.8768 46.2976 40.8761Z" fill="#1B262C" stroke="#F6F7FF" stroke-width="7.66702"/>
<path d="M118.5 146.142L86.8446 90.8776C86.8391 90.868 86.836 90.8613 86.8344 90.8575C86.8346 90.857 86.8347 90.8564 86.8349 90.8557C86.8366 90.8496 86.8397 90.8417 86.8443 90.8335L150.156 90.8335C150.16 90.8417 150.163 90.8496 150.165 90.8557C150.165 90.8564 150.165 90.857 150.166 90.8575C150.164 90.8613 150.161 90.868 150.155 90.8776L118.5 146.142Z" fill="#3282B8" stroke="#F6F7FF" stroke-width="7.66702"/>
<path d="M77 66.5C77 72.8513 71.8513 78 65.5 78C59.1487 78 54 72.8513 54 66.5C54 60.1487 59.1487 55 65.5 55C71.8513 55 77 60.1487 77 66.5Z" fill="#F6F7FF"/>
<path d="M183 66.5C183 72.8513 177.851 78 171.5 78C165.149 78 160 72.8513 160 66.5C160 60.1487 165.149 55 171.5 55C177.851 55 183 60.1487 183 66.5Z" fill="#F6F7FF"/>
</svg>
