<?xml version="1.0" standalone="no"?>
<!DOCTYPE svg PUBLIC "-//W3C//DTD SVG 20010904//EN"
 "http://www.w3.org/TR/2001/REC-SVG-20010904/DTD/svg10.dtd">
<svg version="1.0" xmlns="http://www.w3.org/2000/svg"
 width="944.000000pt" height="944.000000pt" viewBox="0 0 944.000000 944.000000"
 preserveAspectRatio="xMidYMid meet">
<metadata>
Created by potrace 1.14, written by Peter Selinger 2001-2017
</metadata>
<g transform="translate(0.000000,944.000000) scale(0.100000,-0.100000)"
fill="#000000" stroke="none">
<path d="M2419 7716 c-2 -2 -35 -6 -74 -10 -77 -7 -121 -12 -175 -22 -19 -3
-44 -8 -55 -10 -47 -8 -81 -15 -100 -21 -11 -4 -27 -7 -35 -8 -55 -7 -294 -87
-410 -137 -46 -21 -179 -86 -215 -106 -62 -35 -181 -106 -185 -111 -3 -3 -31
-23 -62 -43 -63 -42 -202 -152 -263 -209 -22 -21 -51 -46 -64 -57 l-24 -19
471 -471 472 -472 0 -43 0 -43 108 2 109 1 74 48 c86 56 212 121 255 131 16 4
35 11 42 17 6 5 12 7 12 4 0 -3 21 0 48 8 128 38 361 40 494 4 211 -56 376
-150 514 -291 141 -146 230 -312 279 -523 25 -107 25 -317 0 -445 -14 -71 -89
-258 -109 -272 -6 -4 -8 -8 -3 -8 7 0 -51 -94 -88 -140 -93 -117 -257 -248
-385 -307 -54 -25 -155 -61 -195 -69 -73 -16 -111 -22 -117 -18 -3 2 -9 0 -12
-4 -6 -10 -232 -8 -291 3 -54 10 -70 13 -70 15 0 1 -11 3 -25 5 -14 2 -38 9
-55 16 -16 7 -37 13 -45 15 -23 4 -155 68 -158 77 -2 4 -9 7 -16 7 -7 0 -49
27 -92 59 -207 155 -350 373 -404 616 -7 28 -14 59 -16 70 -12 47 -10 253 2
328 7 45 27 124 43 175 25 76 30 109 30 187 0 52 -3 95 -7 95 -4 0 -13 -9 -20
-21 -12 -18 -15 -19 -30 -7 -9 8 -28 19 -42 26 -14 7 -34 18 -45 24 -46 30
-100 62 -105 63 -3 0 -16 8 -30 17 -55 35 -152 88 -161 88 -5 0 -9 5 -9 10 0
6 -4 10 -9 10 -6 0 -60 29 -121 65 -61 36 -130 76 -153 89 -69 38 -309 177
-347 200 -19 12 -46 27 -60 34 -14 7 -45 25 -70 40 -74 46 -75 46 -104 -14
-15 -29 -26 -57 -25 -60 0 -4 -3 -10 -8 -13 -8 -5 -46 -79 -48 -91 0 -3 -3
-10 -7 -15 -29 -46 -122 -315 -153 -445 -27 -114 -30 -130 -39 -193 -4 -27 -9
-58 -11 -69 -27 -138 -27 -580 0 -720 2 -9 7 -38 10 -65 4 -26 14 -77 22 -113
28 -121 31 -135 33 -135 1 0 3 -9 5 -20 21 -112 146 -417 229 -560 16 -27 36
-63 45 -80 21 -40 154 -232 185 -270 14 -16 40 -48 58 -70 90 -108 223 -240
338 -335 232 -191 534 -358 827 -456 80 -27 290 -82 337 -89 17 -2 40 -6 52
-9 12 -2 45 -7 75 -11 30 -3 66 -8 82 -11 23 -4 228 -16 262 -15 61 0 275 11
290 15 11 2 45 7 75 10 47 6 259 47 313 61 9 3 25 7 35 9 28 6 234 76 267 91
17 7 48 20 70 30 62 27 259 126 265 134 6 8 72 43 74 39 4 -11 49 -91 107
-192 38 -66 69 -121 69 -123 0 -2 11 -20 23 -41 21 -33 41 -68 96 -165 9 -16
21 -36 26 -45 6 -9 28 -48 50 -87 22 -38 48 -83 58 -100 10 -16 20 -38 23 -48
4 -9 10 -17 15 -17 5 0 9 -4 9 -9 0 -5 16 -38 37 -73 20 -34 44 -76 53 -93 9
-16 38 -67 64 -113 l48 -83 90 3 90 3 25 45 c14 25 58 101 97 170 40 69 77
134 84 145 6 11 31 55 56 97 25 43 46 80 46 83 0 3 12 24 27 48 14 23 40 67
56 97 16 30 37 63 46 74 9 10 15 20 14 22 -3 4 23 52 52 98 11 17 27 45 35 61
8 17 18 32 21 35 4 3 20 32 37 65 17 33 39 74 49 90 10 17 19 31 19 33 1 2 28
-11 60 -29 33 -18 91 -47 129 -66 39 -19 78 -39 88 -44 99 -54 460 -167 582
-183 22 -2 47 -7 55 -10 13 -4 45 -9 160 -22 19 -2 88 -6 154 -9 65 -3 122 -8
127 -11 5 -3 9 -2 9 3 0 4 42 8 93 9 90 1 197 9 247 19 13 3 40 7 60 10 44 7
76 13 115 22 17 4 35 7 40 8 6 1 21 4 35 8 14 4 34 9 45 11 11 1 27 6 35 9 8
3 56 18 105 32 50 15 94 31 100 36 5 5 15 9 23 9 14 0 23 4 137 55 116 52 131
60 210 104 255 142 482 325 677 546 103 117 115 132 158 195 8 12 20 28 25 34
11 12 99 149 135 209 33 57 118 231 141 290 11 29 24 61 29 72 32 68 113 357
124 445 3 19 5 35 6 35 4 0 17 91 27 180 10 84 9 468 -1 540 -4 33 -10 75 -12
94 -4 34 -10 65 -18 106 -2 11 -12 60 -22 108 -16 81 -19 88 -38 84 -12 -3
-31 -8 -44 -11 -13 -3 -89 -23 -170 -45 -81 -21 -160 -43 -177 -47 -16 -4 -34
-8 -40 -10 -21 -6 -461 -125 -475 -128 -14 -4 -100 -27 -230 -62 -30 -8 -84
-22 -120 -31 -103 -25 -147 -54 -173 -113 -6 -14 -12 -99 -13 -190 -3 -168 -4
-177 -23 -265 -31 -138 -107 -300 -191 -410 -42 -55 -182 -186 -235 -221 -33
-21 -62 -41 -65 -45 -23 -25 -246 -111 -320 -123 -19 -3 -56 -9 -81 -14 -60
-11 -324 -5 -324 8 0 1 -14 3 -32 5 -54 8 -180 53 -265 95 -148 75 -282 192
-380 330 -49 69 -115 193 -122 230 -1 3 -4 10 -8 16 -12 19 -48 156 -43 165 3
4 2 10 -3 13 -22 13 -21 302 2 402 16 73 53 179 86 244 50 100 73 140 83 140
4 0 7 4 7 10 0 31 180 207 276 270 121 79 229 124 377 156 117 26 317 25 427
-2 14 -3 34 -7 45 -9 47 -8 179 -63 270 -112 64 -35 144 -100 235 -192 52 -53
107 -104 121 -113 51 -33 131 -22 211 29 21 12 42 23 47 23 5 0 11 3 13 8 2 4
17 14 33 23 17 8 117 66 222 127 106 62 197 112 203 112 5 0 10 4 10 9 0 5 8
11 18 14 17 6 93 48 102 57 3 3 14 10 25 16 71 39 333 190 418 241 52 31 70
56 49 65 -5 2 -41 52 -81 111 -83 121 -135 191 -207 272 -61 70 -209 216 -249
247 -16 12 -34 27 -40 33 -23 25 -114 95 -123 95 -6 0 -12 3 -14 8 -10 23
-240 166 -363 225 -44 21 -88 43 -98 48 -55 29 -321 125 -377 135 -14 3 -34 8
-45 11 -31 10 -165 39 -230 49 -16 3 -41 7 -55 9 -116 20 -469 27 -620 13
-404 -39 -831 -192 -1179 -424 -112 -75 -114 -77 -162 -114 -162 -128 -424
-401 -506 -527 -8 -12 -14 -15 -20 -7 -97 138 -236 291 -398 439 -86 79 -307
238 -368 266 -15 7 -27 16 -27 21 0 4 -4 8 -10 8 -5 0 -31 13 -59 29 -27 16
-52 27 -55 24 -3 -4 -6 -2 -6 3 0 6 -19 18 -42 28 -24 9 -54 23 -68 31 -14 7
-68 30 -120 50 -52 20 -113 43 -135 52 -22 8 -47 16 -55 17 -8 1 -46 12 -85
23 -72 22 -189 48 -260 57 -22 3 -53 8 -70 12 -16 3 -46 8 -65 10 -47 5 -467
14 -471 10z"/>
<path d="M2600 5523 c0 -4 -15 -8 -34 -9 -35 0 -148 -32 -156 -44 -3 -4 -19
-15 -37 -23 -72 -38 -184 -187 -196 -262 -1 -11 -5 -24 -8 -30 -12 -22 -8
-139 6 -202 30 -129 117 -241 236 -301 76 -39 92 -42 189 -47 134 -7 251 38
343 132 44 46 102 123 91 123 -2 0 3 14 12 31 22 44 26 63 29 158 4 109 -27
214 -85 285 -57 71 -169 152 -220 159 -8 2 -20 5 -25 9 -6 4 -38 10 -70 13
-33 4 -63 9 -67 12 -5 2 -8 1 -8 -4z"/>
<path d="M6777 5514 c-1 -2 -16 -5 -32 -8 -87 -16 -236 -126 -276 -204 -8 -15
-17 -29 -20 -32 -9 -7 -50 -150 -51 -175 -1 -24 12 -140 18 -159 35 -122 135
-238 247 -289 82 -38 118 -45 214 -43 158 5 280 74 371 211 14 22 27 42 27 45
0 3 3 10 7 15 27 43 48 277 26 291 -4 3 -8 13 -8 22 0 50 -94 186 -166 242
-71 55 -177 88 -283 87 -39 0 -72 -1 -74 -3z"/>
</g>
</svg>
