<svg width="26" height="26" viewBox="0 0 26 26" fill="none" xmlns="http://www.w3.org/2000/svg">
<g clip-path="url(#clip0_514:538)">
<path d="M19.4525 25.957H5.91081C4.39185 25.9554 2.93557 25.3512 1.8615 24.2772C0.787433 23.2031 0.183295 21.7468 0.181641 20.2279L0.181641 6.6862C0.183295 5.16724 0.787433 3.71096 1.8615 2.63689C2.93557 1.56282 4.39185 0.958686 5.91081 0.957031L19.4525 0.957031C20.9714 0.958686 22.4277 1.56282 23.5018 2.63689C24.5758 3.71096 25.18 5.16724 25.1816 6.6862V20.2279C25.18 21.7468 24.5758 23.2031 23.5018 24.2772C22.4277 25.3512 20.9714 25.9554 19.4525 25.957ZM5.91081 4.08203C5.22014 4.08203 4.55776 4.3564 4.06938 4.84477C3.58101 5.33315 3.30664 5.99553 3.30664 6.6862V20.2279C3.30664 20.9185 3.58101 21.5809 4.06938 22.0693C4.55776 22.5577 5.22014 22.832 5.91081 22.832H19.4525C20.1431 22.832 20.8055 22.5577 21.2939 22.0693C21.7823 21.5809 22.0566 20.9185 22.0566 20.2279V6.6862C22.0566 5.99553 21.7823 5.33315 21.2939 4.84477C20.8055 4.3564 20.1431 4.08203 19.4525 4.08203H5.91081Z" fill="#3282B8"/>
<path d="M10.2317 19.707C9.90367 19.7072 9.57882 19.6453 9.27599 19.5249C8.97316 19.4044 8.69838 19.2278 8.46754 19.0053L5.33085 16.0158C5.18448 15.8762 5.06836 15.7103 4.98914 15.5278C4.90992 15.3453 4.86914 15.1497 4.86914 14.9521C4.86914 14.7546 4.90992 14.559 4.98914 14.3765C5.06836 14.194 5.18448 14.0281 5.33085 13.8885C5.62624 13.6066 6.02682 13.4482 6.4445 13.4482C6.86218 13.4482 7.26275 13.6066 7.55814 13.8885L10.2317 16.4399L17.8051 9.20981C18.1005 8.9279 18.5011 8.76953 18.9188 8.76953C19.3365 8.76953 19.737 8.9279 20.0324 9.20981C20.1788 9.34946 20.2949 9.51528 20.3741 9.69778C20.4534 9.88029 20.4941 10.0759 20.4941 10.2735C20.4941 10.471 20.4534 10.6666 20.3741 10.8492C20.2949 11.0317 20.1788 11.1975 20.0324 11.3371L11.9949 19.0103C11.7638 19.2319 11.489 19.4076 11.1864 19.5272C10.8837 19.6467 10.5593 19.7079 10.2317 19.707Z" fill="#3282B8"/>
</g>
<defs>
<clipPath id="clip0_514:538">
<rect width="25" height="25" fill="white" transform="translate(0.181641 0.957031)"/>
</clipPath>
</defs>
</svg>
