<svg width="28" height="29" viewBox="0 0 28 29" fill="none" xmlns="http://www.w3.org/2000/svg">
<g clip-path="url(#clip0_1738_4867)">
<path d="M11.5257 22.0134C11.8508 22.3387 12.2367 22.5967 12.6615 22.7727C13.0863 22.9487 13.5416 23.0393 14.0014 23.0393C14.4612 23.0393 14.9165 22.9487 15.3413 22.7727C15.7661 22.5967 16.152 22.3387 16.4771 22.0134L20.2232 18.2673C20.4241 18.0451 20.5318 17.7542 20.5241 17.4549C20.5165 17.1555 20.3939 16.8705 20.1819 16.659C19.9699 16.4474 19.6847 16.3255 19.3853 16.3185C19.0859 16.3114 18.7953 16.4198 18.5736 16.6211L15.1599 20.0359L15.1681 2.03776C15.1681 1.72834 15.0452 1.43159 14.8264 1.2128C14.6076 0.99401 14.3108 0.871094 14.0014 0.871094V0.871094C13.692 0.871094 13.3952 0.99401 13.1764 1.2128C12.9577 1.43159 12.8347 1.72834 12.8347 2.03776L12.8242 20.0138L9.42924 16.6211C9.21032 16.4023 8.91347 16.2795 8.60399 16.2796C8.29451 16.2797 7.99775 16.4028 7.77899 16.6217C7.56023 16.8406 7.43739 17.1374 7.4375 17.4469C7.43761 17.7564 7.56066 18.0532 7.77957 18.2719L11.5257 22.0134Z" fill="#3282B8"/>
<path d="M26.8333 19.5371C26.5239 19.5371 26.2272 19.66 26.0084 19.8788C25.7896 20.0976 25.6667 20.3944 25.6667 20.7038V25.3704C25.6667 25.6799 25.5438 25.9766 25.325 26.1954C25.1062 26.4142 24.8094 26.5371 24.5 26.5371H3.5C3.19058 26.5371 2.89383 26.4142 2.67504 26.1954C2.45625 25.9766 2.33333 25.6799 2.33333 25.3704V20.7038C2.33333 20.3944 2.21042 20.0976 1.99162 19.8788C1.77283 19.66 1.47609 19.5371 1.16667 19.5371C0.857247 19.5371 0.560501 19.66 0.341709 19.8788C0.122916 20.0976 0 20.3944 0 20.7038L0 25.3704C0 26.2987 0.368749 27.1889 1.02513 27.8453C1.6815 28.5017 2.57174 28.8704 3.5 28.8704H24.5C25.4283 28.8704 26.3185 28.5017 26.9749 27.8453C27.6313 27.1889 28 26.2987 28 25.3704V20.7038C28 20.3944 27.8771 20.0976 27.6583 19.8788C27.4395 19.66 27.1428 19.5371 26.8333 19.5371Z" fill="#3282B8"/>
</g>
<defs>
<clipPath id="clip0_1738_4867">
<rect width="28" height="28" fill="white" transform="translate(0 0.871094)"/>
</clipPath>
</defs>
</svg>
