<svg width="39" height="35" viewBox="0 0 39 35" fill="none" xmlns="http://www.w3.org/2000/svg">
<mask id="path-1-inside-1_1824_5003" fill="white">
<path fill-rule="evenodd" clip-rule="evenodd" d="M37.5509 14.1392C37.4844 13.8069 37.1547 13.6126 36.8357 13.7004L32.1919 14.9789C31.873 15.0667 31.6883 15.4038 31.7267 15.7408C31.8239 16.5933 31.6667 17.4614 31.2685 18.2269C30.7758 19.1742 29.9508 19.8933 28.9609 20.2386C27.9711 20.5838 26.8905 20.5293 25.9383 20.086C24.9862 19.6427 24.2338 18.8439 23.8338 17.8516C23.4337 16.8593 23.416 15.7479 23.7843 14.7426C24.1525 13.7374 24.879 12.9138 25.8166 12.4387C26.7541 11.9637 27.8324 11.8728 28.8327 12.1846C29.6411 12.4366 30.3496 12.9363 30.8676 13.6097C31.0724 13.8759 31.4349 13.9801 31.7209 13.8104L35.8844 11.3406C36.1704 11.1709 36.2698 10.794 36.0881 10.5106C34.7911 8.48827 32.843 6.98856 30.5754 6.28176C28.1165 5.51535 25.4659 5.73866 23.1613 6.90639C21.6295 7.68257 20.3267 8.83739 19.3595 10.2502C18.9008 9.58012 18.3632 8.96308 17.7545 8.41455C15.8226 6.67375 13.3186 5.75317 10.7504 5.83956C8.38199 5.91922 6.12255 6.84978 4.36029 8.45832C4.11341 8.68367 4.1145 9.07421 4.34801 9.31414L7.74748 12.8071C7.98099 13.047 8.35741 13.0427 8.62225 12.84C9.29221 12.3273 10.1025 12.0331 10.9468 12.0047C11.9916 11.9696 13.0102 12.3441 13.7962 13.0522C14.5821 13.7604 15.0764 14.7492 15.1789 15.8181C15.2813 16.887 14.9842 17.9559 14.3479 18.808C13.7115 19.6601 12.7836 20.2316 11.7522 20.4066C10.7208 20.5815 9.66333 20.3468 8.79418 19.7501C7.92503 19.1534 7.30932 18.2394 7.07195 17.1934C6.88012 16.348 6.947 15.4677 7.25559 14.6701C7.37758 14.3548 7.28416 13.9801 6.99817 13.8104L2.83468 11.3406C2.5487 11.1709 2.18127 11.2709 2.03332 11.5742C0.977265 13.7396 0.687243 16.2228 1.22534 18.5941C1.80883 21.1653 3.32233 23.4122 5.45885 24.879C7.59536 26.3458 10.1949 26.9227 12.7301 26.4926C15.2654 26.0625 17.5465 24.6577 19.1107 22.5631C19.1961 22.4487 19.2791 22.3328 19.3595 22.2153C20.3913 23.7225 21.8028 24.9328 23.4607 25.7046C25.8012 26.7943 28.4575 26.9284 30.8907 26.0797C33.3239 25.231 35.3518 23.4632 36.5631 21.1347C37.6801 18.9874 38.0255 16.5116 37.5509 14.1392Z"/>
</mask>
<path d="M36.8357 13.7004L37.2781 15.3073L36.8357 13.7004ZM37.5509 14.1392L39.1852 13.8123L39.1852 13.8123L37.5509 14.1392ZM32.1919 14.9789L31.7495 13.372L31.7495 13.372L32.1919 14.9789ZM31.7267 15.7408L33.3827 15.552V15.552L31.7267 15.7408ZM31.2685 18.2269L29.79 17.4578L31.2685 18.2269ZM28.9609 20.2386L28.4121 18.6649H28.412L28.9609 20.2386ZM25.9383 20.086L26.6418 18.5751L26.6418 18.5751L25.9383 20.086ZM23.8338 17.8516L25.3796 17.2285V17.2285L23.8338 17.8516ZM23.7843 14.7426L22.2193 14.1694L22.2193 14.1694L23.7843 14.7426ZM28.8327 12.1846L28.3367 13.7758L28.3367 13.7758L28.8327 12.1846ZM30.8676 13.6097L29.5466 14.6258V14.6258L30.8676 13.6097ZM31.7209 13.8104L32.5712 15.2439V15.2439L31.7209 13.8104ZM35.8844 11.3406L36.7347 12.774L36.7347 12.774L35.8844 11.3406ZM36.0881 10.5106L34.6852 11.4104L34.6852 11.4104L36.0881 10.5106ZM30.5754 6.28176L31.0713 4.6906V4.69059L30.5754 6.28176ZM23.1613 6.90639L23.9146 8.3931H23.9146L23.1613 6.90639ZM19.3595 10.2502L17.9842 11.1916L19.3595 13.2007L20.7348 11.1917L19.3595 10.2502ZM17.7545 8.41455L18.8702 7.17639L18.8702 7.17639L17.7545 8.41455ZM10.7504 5.83956L10.8064 7.50528L10.7504 5.83956ZM4.36029 8.45832L5.48389 9.6893L5.48389 9.6893L4.36029 8.45832ZM4.34801 9.31414L3.15363 10.4766H3.15363L4.34801 9.31414ZM7.74748 12.8071L6.55311 13.9695L6.55311 13.9695L7.74748 12.8071ZM8.62225 12.84L7.60935 11.5165L7.60935 11.5165L8.62225 12.84ZM10.9468 12.0047L11.0029 13.6704H11.0029L10.9468 12.0047ZM15.1789 15.8181L16.8379 15.6591L16.8379 15.6591L15.1789 15.8181ZM11.7522 20.4066L12.031 22.0497L11.7522 20.4066ZM8.79418 19.7501L7.85085 21.1241H7.85085L8.79418 19.7501ZM7.07195 17.1934L5.44661 17.5622V17.5622L7.07195 17.1934ZM7.25559 14.6701L5.70121 14.0687L5.70121 14.0687L7.25559 14.6701ZM6.99817 13.8104L7.84851 12.377L7.84851 12.377L6.99817 13.8104ZM2.83468 11.3406L3.68502 9.90713L3.68502 9.90713L2.83468 11.3406ZM2.03332 11.5742L0.535322 10.8436L0.535322 10.8436L2.03332 11.5742ZM1.22534 18.5941L-0.4 18.9629L1.22534 18.5941ZM5.45885 24.879L6.40217 23.505L5.45885 24.879ZM12.7301 26.4926L12.4514 24.8494L12.7301 26.4926ZM19.1107 22.5631L20.4461 23.5604V23.5604L19.1107 22.5631ZM19.3595 22.2153L20.7348 21.2738L19.3595 19.2649L17.9842 21.2738L19.3595 22.2153ZM23.4607 25.7046L24.1641 24.1937H24.1641L23.4607 25.7046ZM30.8907 26.0797L31.4396 27.6534L30.8907 26.0797ZM36.5631 21.1347L38.0416 21.9039V21.9039L36.5631 21.1347ZM37.2781 15.3073C36.6885 15.4696 36.0447 15.1063 35.9166 14.4662L39.1852 13.8123C38.9241 12.5074 37.6209 11.7555 36.3933 12.0935L37.2781 15.3073ZM32.6343 16.5858L37.2781 15.3073L36.3933 12.0935L31.7495 13.372L32.6343 16.5858ZM33.3827 15.552C33.4038 15.7369 33.3671 15.9335 33.26 16.1147C33.1484 16.3033 32.9401 16.5016 32.6343 16.5858L31.7495 13.372C30.4749 13.7229 29.9601 14.9582 30.0708 15.9295L33.3827 15.552ZM32.7471 18.9961C33.3003 17.9327 33.517 16.7305 33.3827 15.552L30.0708 15.9295C30.1308 16.456 30.0332 16.9902 29.79 17.4578L32.7471 18.9961ZM29.5098 21.8123C30.9089 21.3243 32.0623 20.3124 32.7471 18.9961L29.79 17.4578C29.4892 18.0359 28.9926 18.4624 28.4121 18.6649L29.5098 21.8123ZM25.2349 21.597C26.5796 22.223 28.1094 22.3007 29.5098 21.8123L28.412 18.6649C27.8327 18.8669 27.2014 18.8356 26.6418 18.5751L25.2349 21.597ZM22.288 18.4748C22.8428 19.851 23.8917 20.9716 25.2349 21.597L26.6418 18.5751C26.0807 18.3139 25.6248 17.8369 25.3796 17.2285L22.288 18.4748ZM22.2193 14.1694C21.7092 15.5618 21.7336 17.0996 22.288 18.4748L25.3796 17.2285C25.1339 16.6191 25.1228 15.9339 25.3492 15.3159L22.2193 14.1694ZM25.0632 10.952C23.7416 11.6217 22.7297 12.7761 22.2193 14.1694L25.3492 15.3159C25.5753 14.6988 26.0165 14.2058 26.5699 13.9254L25.0632 10.952ZM29.3286 10.5934C27.9127 10.1521 26.3864 10.2816 25.0632 10.952L26.5699 13.9254C27.1218 13.6458 27.752 13.5935 28.3367 13.7758L29.3286 10.5934ZM32.1887 12.5935C31.4659 11.6539 30.4717 10.9497 29.3286 10.5934L28.3367 13.7758C28.8105 13.9234 29.2334 14.2187 29.5466 14.6258L32.1887 12.5935ZM30.8706 12.377C31.448 12.0345 31.9838 12.3271 32.1887 12.5935L29.5466 14.6258C30.161 15.4246 31.4218 15.9257 32.5712 15.2439L30.8706 12.377ZM35.0341 9.90714L30.8706 12.377L32.5712 15.2439L36.7347 12.774L35.0341 9.90714ZM34.6852 11.4104C34.3344 10.8636 34.5463 10.1965 35.0341 9.90714L36.7347 12.774C37.7945 12.1453 38.2052 10.7244 37.491 9.61089L34.6852 11.4104ZM30.0794 7.87293C31.965 8.46065 33.5953 9.71103 34.6852 11.4104L37.491 9.61089C35.9869 7.26551 33.721 5.51646 31.0713 4.6906L30.0794 7.87293ZM23.9146 8.3931C25.8336 7.42076 28.0361 7.23605 30.0794 7.87293L31.0713 4.69059C28.1968 3.79466 25.0982 4.05656 22.408 5.41968L23.9146 8.3931ZM20.7348 11.1917C21.5472 10.0049 22.638 9.03995 23.9146 8.3931L22.408 5.41968C20.6209 6.32519 19.1062 7.66983 17.9843 9.30872L20.7348 11.1917ZM16.6388 9.65271C17.1483 10.1118 17.599 10.6289 17.9842 11.1916L20.7348 9.30879C20.2027 8.53134 19.5782 7.81441 18.8702 7.17639L16.6388 9.65271ZM10.8064 7.50528C12.9377 7.43359 15.0231 8.19684 16.6388 9.65271L18.8702 7.17639C16.6221 5.15066 13.6995 4.07275 10.6944 4.17383L10.8064 7.50528ZM5.48389 9.6893C6.95801 8.34376 8.84055 7.57141 10.8064 7.50528L10.6944 4.17383C7.92342 4.26704 5.28708 5.35581 3.23669 7.22735L5.48389 9.6893ZM5.54239 8.15171C5.91915 8.53882 5.98038 9.23612 5.48389 9.6893L3.23669 7.22735C2.24645 8.13121 2.30986 9.6096 3.15363 10.4766L5.54239 8.15171ZM8.94186 11.6446L5.54239 8.15171L3.15363 10.4766L6.55311 13.9695L8.94186 11.6446ZM7.60935 11.5165C7.89386 11.2988 8.4861 11.1763 8.94186 11.6446L6.55311 13.9695C7.47588 14.9176 8.82096 14.7867 9.63515 14.1636L7.60935 11.5165ZM10.8908 10.339C9.69404 10.3792 8.55037 10.7963 7.60935 11.5165L9.63515 14.1636C10.0341 13.8583 10.511 13.687 11.0029 13.6704L10.8908 10.339ZM14.9118 11.8141C13.8097 10.821 12.3725 10.2891 10.8908 10.339L11.0029 13.6704C11.6107 13.65 12.2108 13.8672 12.6805 14.2904L14.9118 11.8141ZM16.8379 15.6591C16.6963 14.1821 16.0126 12.8059 14.9118 11.8141L12.6805 14.2904C13.1516 14.7149 13.4565 15.3164 13.5198 15.9771L16.8379 15.6591ZM15.6833 19.8053C16.5701 18.6178 16.9795 17.1358 16.8379 15.6591L13.5198 15.9771C13.5832 16.6382 13.3984 17.294 13.0125 17.8107L15.6833 19.8053ZM12.031 22.0497C13.4922 21.8019 14.7955 20.994 15.6833 19.8053L13.0125 17.8107C12.6276 18.3262 12.075 18.6613 11.4735 18.7634L12.031 22.0497ZM7.85085 21.1241C9.07382 21.9638 10.569 22.2978 12.031 22.0497L11.4735 18.7634C10.8727 18.8653 10.2528 18.7299 9.7375 18.3761L7.85085 21.1241ZM5.44661 17.5622C5.77499 19.0092 6.62941 20.2856 7.85085 21.1241L9.7375 18.3761C9.22064 18.0213 8.84365 17.4695 8.69729 16.8245L5.44661 17.5622ZM5.70121 14.0687C5.2734 15.1744 5.18118 16.3925 5.44661 17.5622L8.69729 16.8245C8.57906 16.3035 8.6206 15.7609 8.80998 15.2714L5.70121 14.0687ZM6.14784 15.2438C5.88125 15.0857 5.73511 14.8468 5.67671 14.6413C5.62049 14.4435 5.63297 14.2451 5.70121 14.0687L8.80998 15.2714C9.16476 14.3544 8.9705 13.0426 7.84851 12.377L6.14784 15.2438ZM1.98435 12.774L6.14784 15.2438L7.84851 12.377L3.68502 9.90713L1.98435 12.774ZM3.53132 12.3048C3.23413 12.9142 2.5001 13.0799 1.98435 12.774L3.68502 9.90713C2.5973 9.26187 1.12841 9.62759 0.535322 10.8436L3.53132 12.3048ZM2.85068 18.2252C2.39647 16.2237 2.642 14.1283 3.53132 12.3048L0.535322 10.8436C-0.687468 13.3508 -1.02198 16.222 -0.4 18.9629L2.85068 18.2252ZM6.40217 23.505C4.61795 22.28 3.34316 20.3954 2.85068 18.2252L-0.4 18.9629C0.274496 21.9352 2.02672 24.5443 4.51552 26.253L6.40217 23.505ZM12.4514 24.8494C10.3467 25.2065 8.18487 24.7289 6.40217 23.505L4.51552 26.253C7.00584 27.9627 10.0431 28.6389 13.0089 28.1358L12.4514 24.8494ZM17.7753 21.5659C16.4625 23.3238 14.5568 24.4923 12.4514 24.8494L13.0089 28.1358C15.974 27.6328 18.6304 25.9917 20.4461 23.5604L17.7753 21.5659ZM17.9842 21.2738C17.9167 21.3725 17.8471 21.4698 17.7753 21.5659L20.4461 23.5604C20.5452 23.4276 20.6415 23.2931 20.7348 23.1568L17.9842 21.2738ZM24.1641 24.1937C22.7831 23.5508 21.6015 22.5399 20.7348 21.2738L17.9842 23.1568C19.1812 24.9052 20.8225 26.3149 22.7573 27.2156L24.1641 24.1937ZM30.3418 24.506C28.3191 25.2115 26.1121 25.1006 24.1641 24.1937L22.7573 27.2156C25.4903 28.488 28.5958 28.6452 31.4396 27.6534L30.3418 24.506ZM35.0845 20.3656C34.0652 22.3249 32.3657 23.8001 30.3418 24.506L31.4396 27.6534C34.282 26.662 36.6384 24.6014 38.0416 21.9039L35.0845 20.3656ZM35.9166 14.4662C36.3173 16.4691 36.0249 18.5578 35.0845 20.3656L38.0416 21.9039C39.3354 19.417 39.7337 16.5541 39.1852 13.8123L35.9166 14.4662Z" fill="#1B262C" mask="url(#path-1-inside-1_1824_5003)"/>
<path d="M23.9279 20.0008L19.3634 28.1336L14.7989 20.0008L23.9279 20.0008Z" fill="#F6F7FF" stroke="#1B262C" stroke-width="1.66667"/>
<path d="M12.8419 16.1604C12.8419 17.1672 12.0535 17.9834 11.0811 17.9834C10.1086 17.9834 9.32031 17.1672 9.32031 16.1604C9.32031 15.1536 10.1086 14.3374 11.0811 14.3374C12.0535 14.3374 12.8419 15.1536 12.8419 16.1604Z" fill="#1B262C"/>
<path d="M29.3965 16.1604C29.3965 17.1672 28.6082 17.9834 27.6358 17.9834C26.6633 17.9834 25.875 17.1672 25.875 16.1604C25.875 15.1536 26.6633 14.3374 27.6358 14.3374C28.6082 14.3374 29.3965 15.1536 29.3965 16.1604Z" fill="#1B262C"/>
</svg>
