<svg width="50" height="50" viewBox="0 0 50 50" fill="none" xmlns="http://www.w3.org/2000/svg">
<g clip-path="url(#clip0_529:664)">
<path d="M14.5833 45.8333H10.4167C8.75906 45.8333 7.16935 45.1749 5.99725 44.0028C4.82515 42.8306 4.16667 41.2409 4.16667 39.5833V10.4167C4.16667 8.75906 4.82515 7.16935 5.99725 5.99725C7.16935 4.82515 8.75906 4.16667 10.4167 4.16667H14.5833C15.1359 4.16667 15.6658 3.94717 16.0565 3.55647C16.4472 3.16577 16.6667 2.63587 16.6667 2.08333C16.6667 1.5308 16.4472 1.0009 16.0565 0.610194C15.6658 0.219493 15.1359 0 14.5833 0L10.4167 0C7.65501 0.00330804 5.00741 1.10184 3.05463 3.05462C1.10184 5.00741 0.00330804 7.65501 0 10.4167L0 39.5833C0.00330804 42.345 1.10184 44.9926 3.05463 46.9454C5.00741 48.8982 7.65501 49.9967 10.4167 50H14.5833C15.1359 50 15.6658 49.7805 16.0565 49.3898C16.4472 48.9991 16.6667 48.4692 16.6667 47.9167C16.6667 47.3641 16.4472 46.8342 16.0565 46.4435C15.6658 46.0528 15.1359 45.8333 14.5833 45.8333Z" fill="#F6F7FF"/>
<path d="M38.6212 38.9721L48.1774 29.4179C49.3455 28.244 50.0013 26.6552 50.0013 24.9991C50.0013 23.343 49.3455 21.7543 48.1774 20.5804L38.6212 11.0262C38.2282 10.6467 37.702 10.4367 37.1557 10.4415C36.6095 10.4462 36.087 10.6653 35.7007 11.0516C35.3144 11.4379 35.0953 11.9604 35.0906 12.5066C35.0858 13.0529 35.2958 13.5791 35.6753 13.9721L44.617 22.9158H12.5003C11.9478 22.9158 11.4179 23.1353 11.0272 23.526C10.6365 23.9167 10.417 24.4466 10.417 24.9991C10.417 25.5517 10.6365 26.0816 11.0272 26.4723C11.4179 26.863 11.9478 27.0825 12.5003 27.0825H44.6191L35.6753 36.0262C35.4763 36.2184 35.3176 36.4483 35.2084 36.7025C35.0993 36.9566 35.0418 37.23 35.0394 37.5066C35.037 37.7833 35.0897 38.0576 35.1945 38.3136C35.2992 38.5697 35.4539 38.8023 35.6495 38.9979C35.8451 39.1935 36.0777 39.3482 36.3338 39.4529C36.5898 39.5577 36.8641 39.6104 37.1407 39.608C37.4174 39.6056 37.6907 39.5481 37.9449 39.4389C38.1991 39.3298 38.429 39.171 38.6212 38.9721Z" fill="#F6F7FF"/>
</g>
<defs>
<clipPath id="clip0_529:664">
<rect width="50" height="50" fill="white"/>
</clipPath>
</defs>
</svg>
