<svg width="16" height="16" viewBox="0 0 16 16" fill="none" xmlns="http://www.w3.org/2000/svg">
<g clip-path="url(#clip0_1569_3704)">
<path d="M14.2441 7.83203H1.24414C0.898963 7.83203 0.244141 8.55589 0.244141 8.83203C0.244141 9.10817 0.898963 8.83203 1.24414 8.83203H14.2441C14.5893 8.83203 15.2441 9.10817 15.2441 8.83203C15.2441 8.55589 14.5893 7.83203 14.2441 7.83203Z" fill="#F6F7FF"/>
<path d="M14.2441 3.83203H1.24414C0.898963 3.83203 0.244141 4.55589 0.244141 4.83203C0.244141 5.10817 0.898963 4.83203 1.24414 4.83203H14.2441C14.5893 4.83203 15.2441 5.10817 15.2441 4.83203C15.2441 4.55589 14.5893 3.83203 14.2441 3.83203Z" fill="#F6F7FF"/>
<path d="M14.2441 11.832H1.24414C0.898963 11.832 0.244141 12.5559 0.244141 12.832C0.244141 13.1082 0.898963 12.832 1.24414 12.832H14.2441C14.5893 12.832 15.2441 13.1082 15.2441 12.832C15.2441 12.5559 14.5893 11.832 14.2441 11.832Z" fill="#F6F7FF"/>
</g>
<defs>
<clipPath id="clip0_1569_3704">
<rect width="15" height="15" fill="white" transform="translate(0.244141 0.832031)"/>
</clipPath>
</defs>
</svg>
