<svg width="26" height="26" viewBox="0 0 26 26" fill="none" xmlns="http://www.w3.org/2000/svg">
<g clip-path="url(#clip0_531:1191)">
<path d="M19.4525 25.957H5.91081C4.39185 25.9554 2.93557 25.3512 1.8615 24.2772C0.787433 23.2031 0.183295 21.7468 0.181641 20.2279L0.181641 6.6862C0.183295 5.16724 0.787433 3.71096 1.8615 2.63689C2.93557 1.56282 4.39185 0.958686 5.91081 0.957031L19.4525 0.957031C20.9714 0.958686 22.4277 1.56282 23.5018 2.63689C24.5758 3.71096 25.18 5.16724 25.1816 6.6862V20.2279C25.18 21.7468 24.5758 23.2031 23.5018 24.2772C22.4277 25.3512 20.9714 25.9554 19.4525 25.957ZM5.91081 4.08203C5.22014 4.08203 4.55776 4.3564 4.06938 4.84477C3.58101 5.33315 3.30664 5.99553 3.30664 6.6862V20.2279C3.30664 20.9185 3.58101 21.5809 4.06938 22.0693C4.55776 22.5577 5.22014 22.832 5.91081 22.832H19.4525C20.1431 22.832 20.8055 22.5577 21.2939 22.0693C21.7823 21.5809 22.0566 20.9185 22.0566 20.2279V6.6862C22.0566 5.99553 21.7823 5.33315 21.2939 4.84477C20.8055 4.3564 20.1431 4.08203 19.4525 4.08203H5.91081Z" fill="#3282B8"/>
</g>
<defs>
<clipPath id="clip0_531:1191">
<rect width="25" height="25" fill="white" transform="translate(0.181641 0.957031)"/>
</clipPath>
</defs>
</svg>
